<?xml version="1.0" standalone="no"?>
<!DOCTYPE svg PUBLIC "-//W3C//DTD SVG 20010904//EN"
 "http://www.w3.org/TR/2001/REC-SVG-20010904/DTD/svg10.dtd">
<svg version="1.0" xmlns="http://www.w3.org/2000/svg"
 width="476.000000pt" height="476.000000pt" viewBox="0 0 476.000000 476.000000"
 preserveAspectRatio="xMidYMid meet">
<metadata>
Created by potrace 1.11, written by Peter Selinger 2001-2013
</metadata>
<g transform="translate(0.000000,476.000000) scale(0.100000,-0.100000)"
fill="#000000" stroke="none">
<path d="M2683 4747 c-6 -10 -122 -13 -573 -13 -553 0 -566 -1 -612 -21 -66
-30 -132 -94 -158 -156 -25 -57 -36 -187 -17 -199 8 -5 8 -10 0 -20 -7 -7 -11
-51 -11 -102 1 -60 -3 -91 -10 -94 -16 -5 -16 -199 -1 -204 16 -5 16 -201 0
-206 -15 -5 -15 -149 0 -154 7 -2 11 -31 11 -73 0 -127 -2 -146 -12 -140 -14
9 -13 -138 1 -152 9 -9 12 -329 12 -1205 0 -694 3 -1200 9 -1210 5 -12 5 -18
-1 -18 -16 0 -5 -139 15 -190 19 -51 110 -146 154 -162 20 -7 27 -14 23 -26
-4 -14 -3 -14 5 -3 9 13 13 13 28 0 11 -9 15 -9 10 -2 -8 14 6 18 18 6 4 -4
50 -8 104 -9 53 -1 102 -2 107 -4 6 -1 12 -1 15 0 15 7 207 5 217 -2 6 -5 14
-4 18 2 5 8 15 6 33 -6 20 -13 24 -14 15 -2 -11 12 -8 15 17 15 17 0 27 -5 23
-10 -4 -6 -1 -7 8 -1 18 11 69 12 76 1 2 -4 11 -3 18 3 10 8 19 8 33 1 11 -6
22 -7 26 -4 12 12 300 10 308 -2 5 -6 8 -5 8 3 0 10 5 10 21 1 12 -6 19 -7 16
-2 -3 4 96 8 219 8 123 0 224 2 224 5 0 3 20 5 44 5 24 0 42 3 40 7 -3 4 14
17 37 28 104 54 165 163 158 285 -1 22 -2 54 -2 70 2 105 2 3539 0 3620 -2 82
-6 108 -26 148 -48 99 -151 167 -258 171 -31 1 -59 8 -61 14 -5 16 -318 16
-329 -1z"/>
<path d="M2656 362 c-3 -5 1 -9 9 -9 8 0 12 4 9 9 -3 4 -7 8 -9 8 -2 0 -6 -4
-9 -8z"/>
</g>
</svg>
